<?xml version="1.0" standalone="no"?>
<!DOCTYPE svg PUBLIC "-//W3C//DTD SVG 20010904//EN"
 "http://www.w3.org/TR/2001/REC-SVG-20010904/DTD/svg10.dtd">
<svg version="1.0" xmlns="http://www.w3.org/2000/svg"
 width="750.000000pt" height="400.000000pt" viewBox="0 0 750.000000 400.000000"
 preserveAspectRatio="xMidYMid meet">

<g transform="translate(0.000000,400.000000) scale(0.100000,-0.100000)"
fill="#000000" stroke="none">
<path d="M5019 3951 c-65 -21 -73 -30 -217 -256 -28 -44 -55 -85 -60 -91 -5
-5 -15 -21 -22 -35 -14 -26 -110 -161 -121 -169 -3 -3 -14 -22 -24 -42 -9 -21
-24 -38 -32 -38 -8 0 -11 5 -8 10 3 6 4 10 2 10 -2 0 -16 -18 -31 -40 -15 -23
-38 -51 -51 -62 -14 -12 -25 -27 -25 -34 0 -14 -26 -37 -46 -40 -18 -3 -114
-96 -114 -111 0 -6 -14 -16 -30 -22 -33 -11 -98 -60 -139 -103 -14 -16 -31
-28 -39 -28 -7 0 -56 -35 -110 -78 -283 -228 -834 -587 -1124 -733 -53 -26
-108 -59 -122 -72 -15 -14 -40 -27 -57 -31 -20 -4 -33 -13 -36 -27 -4 -14 -8
-17 -13 -9 -9 15 -210 -86 -210 -106 0 -17 -17 -18 -22 -2 -3 9 -12 8 -31 -5
-15 -10 -27 -15 -27 -12 0 3 -13 -1 -30 -10 -16 -9 -30 -21 -30 -28 0 -9 -2
-9 -8 0 -6 9 -35 2 -115 -25 -58 -21 -112 -43 -118 -49 -6 -6 -17 -9 -24 -6
-8 2 -24 -1 -37 -8 -13 -7 -32 -13 -42 -14 -10 -1 -24 -9 -31 -18 -7 -10 -15
-13 -21 -7 -6 6 -22 6 -44 -2 -19 -6 -41 -13 -48 -14 -7 -2 -17 -14 -22 -26
-9 -23 -9 -23 -9 -1 -1 22 -2 22 -81 -5 -8 -3 -40 -11 -70 -19 -245 -59 -507
-108 -705 -133 -204 -25 -308 -60 -359 -121 -35 -41 -33 -61 9 -108 58 -64
187 -115 420 -165 285 -61 523 -86 845 -86 301 0 530 26 750 86 l55 15 2 68
c2 74 33 176 78 257 64 114 105 170 222 297 19 20 31 42 28 47 -4 6 -2 9 3 8
5 -2 78 63 163 143 236 225 242 230 272 245 24 13 28 13 33 0 3 -9 -3 -28 -14
-43 -72 -103 -141 -301 -149 -429 -11 -173 43 -250 194 -274 102 -17 209 11
643 169 63 23 192 69 285 102 229 81 446 159 775 278 413 148 444 156 518 130
86 -30 80 -153 -11 -221 -18 -14 -104 -62 -192 -108 -134 -70 -380 -203 -610
-330 -27 -15 -124 -72 -215 -125 -138 -81 -158 -96 -125 -91 22 3 99 13 171
21 323 37 579 84 779 142 66 20 144 43 173 51 l53 16 37 -39 c20 -22 28 -32
17 -23 -22 18 -51 15 -135 -16 -72 -27 -165 -52 -315 -84 -275 -60 -347 -72
-776 -126 -63 -9 -124 -18 -134 -22 -33 -13 -6 14 43 43 62 36 47 39 -136 19
-301 -32 -444 -39 -695 -33 -248 5 -330 14 -474 51 -84 22 -121 20 -181 -9
-29 -14 -112 -45 -185 -69 -132 -44 -132 -45 -135 -78 -5 -42 15 -131 39 -183
15 -30 15 -34 3 -18 -9 13 -22 23 -29 23 -8 0 -11 10 -9 27 2 16 1 22 -2 16
-4 -9 -21 -11 -58 -7 -38 5 -63 2 -87 -9 -19 -9 -56 -18 -82 -21 -27 -3 -53
-8 -58 -12 -16 -9 -542 -4 -719 7 -91 6 -203 12 -250 14 -47 2 -97 7 -113 11
-16 4 -27 2 -27 -4 0 -6 -39 -12 -93 -14 -74 -2 -97 -7 -111 -21 -13 -13 -27
-16 -46 -12 -20 4 -29 2 -34 -10 -8 -22 40 -63 84 -70 79 -13 146 -28 164 -37
17 -10 18 -11 3 -20 -25 -13 -21 -28 8 -28 24 0 27 -3 29 -32 1 -7 8 -18 16
-25 24 -18 8 -23 -36 -12 -73 20 -312 145 -350 184 -18 17 -7 45 17 45 10 0
19 5 19 10 0 19 -39 10 -45 -10 -6 -20 -25 -28 -25 -12 0 5 -6 9 -13 9 -38 0
-212 154 -290 256 -34 46 -48 47 -45 5 2 -21 -1 -32 -9 -31 -7 2 -12 -19 -15
-56 -1 -33 0 -57 5 -54 4 2 7 -5 7 -15 0 -11 7 -25 15 -32 8 -7 15 -18 15 -25
0 -6 9 -20 20 -30 11 -10 20 -23 20 -29 0 -25 170 -181 226 -207 22 -10 49
-27 59 -39 10 -11 22 -20 26 -20 4 0 68 -29 141 -65 73 -36 142 -65 153 -65
11 0 35 -9 53 -20 18 -11 41 -20 52 -20 10 0 22 -5 25 -10 3 -6 21 -10 40 -10
19 0 36 -4 39 -9 4 -5 24 -12 46 -16 22 -4 42 -11 46 -16 3 -5 21 -9 40 -9 20
0 43 -4 53 -10 22 -11 55 -18 151 -31 41 -6 84 -15 95 -20 23 -11 138 -30 175
-29 13 0 72 -7 130 -17 151 -24 979 -23 1055 1 28 9 115 24 194 34 115 14 159
16 215 7 159 -23 693 -4 1286 45 58 5 200 16 315 25 116 8 233 17 260 20 42 4
45 3 20 -5 -54 -17 -187 -31 -367 -40 -256 -12 -335 -20 -313 -33 12 -6 79 -7
189 -2 94 4 288 9 431 11 143 2 271 6 285 9 58 13 247 33 267 28 13 -3 24 1
31 13 7 12 17 15 38 11 19 -3 35 0 46 10 11 10 24 13 35 8 32 -14 45 -14 39 0
-6 16 14 25 54 25 16 0 32 5 36 11 3 6 17 8 30 5 20 -5 26 -1 34 20 9 22 15
26 40 22 17 -3 30 0 30 6 0 6 7 20 15 30 12 16 17 17 30 6 23 -19 28 -6 11 28
-14 27 -14 31 0 36 9 3 29 6 45 6 21 0 27 4 23 15 -4 8 -1 15 6 15 7 0 10 7 6
16 -5 13 -1 15 19 10 19 -5 25 -2 25 9 0 17 46 39 61 29 5 -3 9 -1 9 5 0 6 9
19 21 30 21 19 21 19 -18 6 -50 -18 -82 -20 -65 -3 20 20 13 32 -8 13 -11 -10
-17 -22 -13 -28 3 -6 1 -7 -6 -3 -6 4 -9 11 -6 16 9 14 -35 23 -50 10 -7 -6
-35 -14 -62 -17 -26 -2 -53 -9 -58 -13 -6 -5 -30 -8 -54 -7 -27 1 -45 -4 -51
-13 -7 -11 -16 -12 -44 -3 -33 10 -38 9 -55 -13 -18 -23 -38 -34 -26 -14 3 6
-1 17 -9 26 -9 9 -16 11 -16 4 0 -6 -4 -8 -10 -5 -5 3 -20 -1 -33 -10 -19 -12
-28 -13 -50 -2 -15 6 -27 18 -27 25 0 7 -3 11 -7 9 -5 -2 -16 4 -25 14 -20 21
-6 30 35 22 26 -5 27 -4 22 26 -5 27 -2 31 17 31 12 0 30 8 40 17 16 14 23 15
38 5 28 -17 40 -15 40 7 0 15 11 22 48 31 26 6 59 11 74 11 15 -1 29 3 33 9 3
5 27 10 52 10 40 0 44 2 33 15 -7 9 -19 14 -26 11 -6 -2 -14 4 -17 15 -3 10
-17 23 -31 29 -22 8 -26 16 -26 50 0 35 3 40 23 41 12 0 -5 9 -38 18 -57 17
-145 57 -145 65 0 2 32 -7 72 -21 93 -32 209 -38 580 -25 340 11 325 6 304
109 -8 37 -19 69 -25 71 -6 2 -11 14 -11 27 0 33 -56 148 -85 173 -14 12 -25
26 -25 30 0 8 -33 199 -95 556 -17 95 -35 166 -50 197 -39 76 -35 90 50 179
41 43 75 86 75 95 0 18 -55 75 -72 75 -5 0 -42 16 -83 36 -94 46 -114 79 -95
159 14 57 3 112 -26 136 -8 7 -12 20 -8 31 15 47 -49 62 -121 29 -56 -25 -156
-120 -184 -175 -37 -70 -112 -149 -172 -178 -123 -59 -347 -87 -556 -68 -203
17 -279 43 -404 137 l-46 35 5 112 c10 228 -26 325 -178 478 -55 56 -100 105
-100 110 0 19 40 85 67 109 15 15 73 56 128 91 169 109 225 192 191 281 -10
26 -27 49 -45 60 -35 21 -106 30 -142 18z m102 -52 c30 -16 48 -66 38 -103
-13 -44 -61 -89 -174 -163 -120 -78 -169 -123 -200 -183 -23 -44 -24 -46 -64
-42 -23 2 -41 7 -41 12 0 16 301 459 322 474 26 18 90 21 119 5z m-1111 -1273
c0 -3 -4 -8 -10 -11 -5 -3 -10 -1 -10 4 0 6 5 11 10 11 6 0 10 -2 10 -4z
m-240 -62 c0 -8 -4 -12 -10 -9 -5 3 -10 10 -10 16 0 5 5 9 10 9 6 0 10 -7 10
-16z m2968 -108 c4 -34 -13 -56 -43 -56 -37 0 -48 59 -18 92 14 16 19 17 37 4
12 -7 22 -25 24 -40z m-166 -39 c14 -23 8 -74 -11 -91 -28 -25 -79 -17 -104
16 -17 23 -18 31 -7 57 19 48 96 59 122 18z m-227 -82 c36 -36 34 -88 -5 -127
-27 -26 -36 -30 -68 -25 -84 14 -110 113 -43 164 28 22 89 16 116 -12z m-285
-70 c44 -23 70 -62 70 -107 0 -32 -7 -47 -34 -74 -28 -28 -41 -34 -78 -34 -50
0 -82 18 -103 60 -31 59 -13 113 49 151 37 23 58 24 96 4z m-3090 -161 c0 -8
-5 -12 -10 -9 -6 4 -8 11 -5 16 9 14 15 11 15 -7z m-123 -56 c-3 -8 -6 -5 -6
6 -1 11 2 17 5 13 3 -3 4 -12 1 -19z m128 2 c3 -5 1 -10 -4 -10 -6 0 -11 5
-11 10 0 6 2 10 4 10 3 0 8 -4 11 -10z m-194 -33 c-10 -9 -11 -8 -5 6 3 10 9
15 12 12 3 -3 0 -11 -7 -18z m-41 -7 c0 -5 -5 -10 -11 -10 -5 0 -7 5 -4 10 3
6 8 10 11 10 2 0 4 -4 4 -10z m-230 -110 c0 -5 -5 -10 -11 -10 -5 0 -7 5 -4
10 3 6 8 10 11 10 2 0 4 -4 4 -10z m-270 -160 c0 -5 -4 -10 -10 -10 -5 0 -10
5 -10 10 0 6 5 10 10 10 6 0 10 -4 10 -10z m-130 -40 c0 -5 -4 -10 -10 -10 -5
0 -10 5 -10 10 0 6 5 10 10 10 6 0 10 -4 10 -10z m130 0 c0 -5 -2 -10 -4 -10
-3 0 -8 5 -11 10 -3 6 -1 10 4 10 6 0 11 -4 11 -10z m-260 -50 c0 -5 -2 -10
-4 -10 -3 0 -8 5 -11 10 -3 6 -1 10 4 10 6 0 11 -4 11 -10z m4235 -24 c-23
-15 -136 -58 -141 -53 -4 4 135 65 151 66 5 1 1 -5 -10 -13z m-3908 -122 c-3
-3 -12 -4 -19 -1 -8 3 -5 6 6 6 11 1 17 -2 13 -5z m740 -310 c-3 -3 -12 -4
-19 -1 -8 3 -5 6 6 6 11 1 17 -2 13 -5z m543 -159 c-14 -8 -34 -14 -45 -14
-13 0 -7 5 15 13 47 18 61 18 30 1z m-584 -37 c-18 -26 -22 -17 -5 14 6 11 13
17 16 15 3 -3 -2 -16 -11 -29z m511 6 c-3 -3 -12 -4 -19 -1 -8 3 -5 6 6 6 11
1 17 -2 13 -5z m-503 -56 c-3 -5 -11 -5 -19 2 -10 8 -14 4 -19 -16 -4 -14 -9
-24 -12 -22 -2 3 0 17 5 31 7 19 15 24 30 20 12 -3 18 -9 15 -15z m-2051 -125
c-7 -2 -19 -2 -25 0 -7 3 -2 5 12 5 14 0 19 -2 13 -5z m3938 -39 c-19 -8 -87
-32 -150 -54 -172 -58 -195 -67 -198 -77 -2 -5 -26 2 -54 15 -67 34 -190 43
-424 32 -224 -10 -253 -19 -349 -109 -29 -28 -44 -37 -37 -24 6 12 16 25 21
28 6 3 10 14 10 24 0 21 -26 31 -85 31 -41 1 -75 18 -75 39 0 6 -9 11 -20 11
-27 0 -25 16 3 24 12 3 150 9 307 12 364 7 782 22 840 29 25 3 79 12 120 19
41 8 86 14 100 15 22 0 21 -1 -9 -15z m-3651 -64 c0 -5 -2 -10 -4 -10 -3 0 -8
5 -11 10 -3 6 -1 10 4 10 6 0 11 -4 11 -10z m4647 4 c-3 -3 -12 -4 -19 -1 -8
3 -5 6 6 6 11 1 17 -2 13 -5z m-47 -54 c0 -5 -7 -10 -15 -10 -8 0 -15 5 -15
10 0 6 7 10 15 10 8 0 15 -4 15 -10z m-4557 -17 c-7 -2 -19 -2 -25 0 -7 3 -2
5 12 5 14 0 19 -2 13 -5z m4610 -23 c8 0 8 -3 1 -10 -12 -12 -44 -3 -44 12 0
6 7 7 16 4 9 -3 21 -6 27 -6z m-4592 -28 c13 4 57 -28 48 -36 -2 -2 -20 3 -39
13 -19 9 -44 15 -55 13 -20 -4 -20 -4 0 11 13 10 22 12 26 5 4 -6 13 -8 20 -6z
m4489 8 c0 -5 -2 -10 -4 -10 -3 0 -8 5 -11 10 -3 6 -1 10 4 10 6 0 11 -4 11
-10z m440 0 c0 -5 -7 -7 -15 -4 -8 4 -15 8 -15 10 0 2 7 4 15 4 8 0 15 -4 15
-10z m-1812 -25 c17 -14 34 -43 42 -69 10 -38 10 -49 -5 -80 -25 -52 -60 -76
-109 -76 -53 0 -85 17 -114 60 -18 28 -22 42 -17 75 12 75 57 115 132 115 30
0 50 -7 71 -25z m1732 15 c0 -5 -9 -10 -19 -10 -11 0 -23 5 -26 10 -4 6 5 10
19 10 14 0 26 -4 26 -10z m-2169 -15 c60 -32 86 -113 55 -174 -8 -15 -34 -38
-59 -51 -41 -22 -46 -22 -87 -9 -55 17 -90 65 -90 120 0 53 16 83 58 107 44
26 82 28 123 7z m2064 5 c3 -5 -3 -10 -14 -10 -12 0 -21 5 -21 10 0 6 6 10 14
10 8 0 18 -4 21 -10z m-4635 -10 c0 -5 -7 -10 -15 -10 -8 0 -15 5 -15 10 0 6
7 10 15 10 8 0 15 -4 15 -10z m4532 -12 c-9 -9 -15 -9 -24 0 -9 9 -7 12 12 12
19 0 21 -3 12 -12z m-95 -4 c-3 -3 -12 -4 -19 -1 -8 3 -5 6 6 6 11 1 17 -2 13
-5z m48 -44 c3 -5 2 -10 -4 -10 -5 0 -13 5 -16 10 -3 6 -2 10 4 10 5 0 13 -4
16 -10z m-30 -70 c-3 -5 -11 -10 -16 -10 -6 0 -7 5 -4 10 3 6 11 10 16 10 6 0
7 -4 4 -10z m-70 -20 c-3 -5 -16 -10 -28 -9 -20 1 -20 2 3 9 14 4 26 8 28 9 2
1 0 -3 -3 -9z"/>
<path d="M898 793 c7 -3 16 -2 19 1 4 3 -2 6 -13 5 -11 0 -14 -3 -6 -6z"/>
<path d="M6160 790 c0 -13 18 -22 24 -11 3 5 -1 11 -9 15 -8 3 -15 1 -15 -4z"/>
<path d="M6120 730 c0 -5 5 -10 11 -10 5 0 7 5 4 10 -3 6 -8 10 -11 10 -2 0
-4 -4 -4 -10z"/>
<path d="M1015 720 c3 -5 11 -10 16 -10 6 0 7 5 4 10 -3 6 -11 10 -16 10 -6 0
-7 -4 -4 -10z"/>
<path d="M6020 715 c7 -8 16 -12 21 -9 13 8 1 24 -18 24 -13 0 -13 -3 -3 -15z"/>
<path d="M6465 720 c-3 -5 1 -10 9 -10 8 0 18 5 21 10 3 6 -1 10 -9 10 -8 0
-18 -4 -21 -10z"/>
<path d="M1085 710 c-3 -5 3 -10 14 -10 12 0 21 5 21 10 0 6 -6 10 -14 10 -8
0 -18 -4 -21 -10z"/>
<path d="M6370 710 c0 -5 5 -10 10 -10 6 0 10 5 10 10 0 6 -4 10 -10 10 -5 0
-10 -4 -10 -10z"/>
<path d="M1130 690 c0 -5 5 -10 11 -10 5 0 7 5 4 10 -3 6 -8 10 -11 10 -2 0
-4 -4 -4 -10z"/>
<path d="M6166 685 c-4 -10 1 -15 14 -15 13 0 18 5 14 15 -4 8 -10 15 -14 15
-4 0 -10 -7 -14 -15z"/>
<path d="M6270 690 c0 -5 5 -10 10 -10 6 0 10 5 10 10 0 6 -4 10 -10 10 -5 0
-10 -4 -10 -10z"/>
<path d="M6072 683 c-10 -4 -10 -8 -1 -19 13 -15 39 -19 39 -5 0 14 -24 29
-38 24z"/>
<path d="M5965 671 c-9 -16 3 -31 26 -31 14 0 19 6 17 17 -4 20 -33 29 -43 14z"/>
<path d="M1132 658 c2 -6 15 -13 27 -15 20 -3 22 -1 11 12 -15 18 -43 20 -38
3z"/>
</g>
</svg>
