<?xml version="1.0" standalone="no"?>
<!DOCTYPE svg PUBLIC "-//W3C//DTD SVG 20010904//EN"
 "http://www.w3.org/TR/2001/REC-SVG-20010904/DTD/svg10.dtd">
<svg version="1.0" xmlns="http://www.w3.org/2000/svg"
 width="840.000000pt" height="434.000000pt" viewBox="0 0 840.000000 434.000000"
 preserveAspectRatio="xMidYMid meet">

<g transform="translate(0.000000,434.000000) scale(0.100000,-0.100000)"
fill="#000000" stroke="none">
<path d="M3071 3908 c-109 -42 -164 -125 -260 -397 -28 -79 -52 -145 -53 -146
-76 -53 -433 -289 -508 -336 -173 -109 -180 -111 -305 -116 -259 -11 -400 63
-579 300 -128 171 -175 207 -268 207 -60 0 -177 -34 -273 -79 -133 -62 -133
-62 -263 -473 -188 -594 -340 -1094 -353 -1159 -17 -85 -6 -239 28 -394 21
-96 27 -148 24 -200 -3 -38 -5 -243 -5 -455 l-1 -385 23 -37 24 -38 1358 0
1358 0 26 31 c31 36 36 54 44 151 l7 73 124 0 123 0 38 -91 c49 -117 64 -140
103 -154 41 -14 2104 -14 2472 0 292 11 622 50 1035 121 697 121 1104 275
1189 452 17 36 21 62 21 153 -1 260 -23 350 -113 465 -91 115 -70 106 -1453
574 -313 106 -559 194 -585 210 -24 16 -316 205 -649 420 -1204 779 -1708
1099 -1836 1163 -44 22 -117 63 -163 91 -46 28 -100 55 -120 61 -58 16 -151
11 -210 -12z m134 -228 c7 -11 -69 -64 -85 -58 -15 5 17 47 44 58 28 12 34 12
41 0z m370 -200 c104 -50 385 -240 385 -259 0 -4 -18 -15 -41 -25 -129 -57
-88 -256 54 -256 79 0 120 43 133 138 3 29 11 52 16 52 13 0 258 -161 258
-170 0 -4 -7 -13 -16 -21 -45 -37 -58 -131 -25 -185 25 -41 83 -68 130 -60 49
8 82 34 106 84 11 23 24 41 29 42 11 0 203 -127 210 -139 3 -4 -1 -25 -9 -47
-38 -111 61 -209 176 -175 22 7 45 21 52 31 18 30 45 24 127 -26 101 -62 111
-74 121 -135 15 -94 84 -139 180 -117 63 15 64 14 326 -154 l204 -131 667
-224 c1083 -364 1165 -394 1219 -445 37 -36 73 -106 73 -142 0 -30 -4 -31
-225 -50 -93 -9 -249 -22 -345 -31 -523 -46 -843 -67 -1080 -72 -418 -9 -1027
16 -1655 68 -613 50 -1645 152 -1666 164 -4 3 -41 67 -83 143 -41 75 -96 168
-123 207 -55 79 -93 109 -635 507 -714 523 -1016 740 -1074 768 -58 29 -144
27 -213 -5 -32 -15 -51 -20 -49 -13 3 7 24 79 48 161 l44 147 93 30 c51 17 97
30 101 30 5 0 35 -39 68 -87 78 -117 220 -259 311 -312 169 -100 391 -135 608
-96 139 25 161 38 963 578 193 131 367 245 385 252 40 19 76 13 152 -25z
m-2510 -864 c169 -110 699 -491 1210 -870 309 -228 317 -235 352 -282 39 -51
133 -214 133 -230 0 -7 -27 -14 -67 -17 -38 -4 -543 -7 -1125 -7 l-1056 0 -28
113 c-22 89 -28 134 -27 222 0 128 15 189 142 598 90 289 78 268 248 445 62
64 86 82 107 82 17 0 61 -22 111 -54z m1660 -1576 c99 -5 302 -23 450 -39 149
-17 320 -35 380 -41 1310 -125 2127 -177 2667 -167 267 4 415 14 933 57 253
21 679 50 736 50 56 0 59 -1 49 -20 -32 -60 -280 -154 -591 -224 -319 -71
-804 -147 -1164 -182 -269 -26 -911 -35 -1764 -27 l-804 8 -46 104 c-68 154
-47 146 -369 146 -251 0 -269 -1 -302 -21 -49 -28 -60 -56 -60 -156 l0 -88
-1171 0 -1170 0 3 285 c2 213 6 287 16 297 7 7 36 15 65 19 83 10 1943 9 2142
-1z"/>
<path d="M3423 3430 c-40 -24 -63 -67 -63 -117 0 -120 142 -176 227 -90 87 86
30 227 -92 227 -22 0 -54 -9 -72 -20z"/>
<path d="M3924 2736 c-620 -559 -964 -878 -964 -891 0 -13 314 -138 351 -139
20 -1 124 88 504 434 577 523 519 468 504 487 -7 8 -83 50 -170 93 l-156 79
-69 -63z"/>
<path d="M4644 2418 c-78 -60 -483 -408 -811 -697 -79 -69 -139 -129 -135
-132 7 -8 280 -84 335 -94 37 -7 34 -9 387 291 338 287 543 468 547 481 4 11
-116 88 -224 142 -34 17 -64 31 -66 31 -3 0 -17 -10 -33 -22z"/>
<path d="M5124 1953 c-310 -248 -657 -537 -648 -540 21 -6 419 -83 431 -83 27
0 703 587 703 610 0 11 -292 140 -318 140 -4 0 -80 -57 -168 -127z"/>
<path d="M852 2459 c-77 -39 -100 -104 -82 -228 26 -182 72 -267 157 -290 49
-13 92 -6 228 39 162 54 215 100 215 188 0 87 -58 139 -275 247 -133 66 -182
75 -243 44z m213 -215 c69 -36 127 -69 129 -73 6 -9 -168 -61 -202 -61 -27 0
-38 20 -52 100 -6 36 -13 73 -16 83 -3 9 0 17 6 17 6 0 67 -30 135 -66z"/>
<path d="M1465 1974 c-295 -82 -505 -153 -532 -180 -29 -29 -28 -38 27 -199
52 -152 89 -242 106 -255 22 -19 366 -32 670 -25 402 9 422 13 465 97 22 43
25 130 6 168 -31 60 -527 441 -572 439 -5 0 -82 -20 -170 -45z m295 -235 c173
-130 302 -238 295 -249 -9 -14 -297 -20 -595 -12 l-285 7 -35 102 c-19 56 -32
104 -29 108 3 3 91 30 195 61 104 31 207 62 229 69 73 25 83 21 225 -86z"/>
</g>
</svg>
